<svg width="42" height="32" viewBox="0 0 42 32" fill="none" xmlns="http://www.w3.org/2000/svg">
<path d="M19.6267 30.5676C19.5845 30.7525 19.5092 30.9265 19.4052 31.0796C19.3011 31.2328 19.1703 31.3621 19.0203 31.4601C18.8703 31.5581 18.7041 31.6229 18.531 31.6509C18.358 31.6788 18.1816 31.6693 18.0119 31.6228L12.9944 30.2568C12.5874 30.1453 12.21 29.9312 11.8929 29.6318L8.13871 26.0775C7.87376 25.8247 7.7116 25.4678 7.68771 25.085C7.66383 24.7022 7.78017 24.3247 8.01126 24.0351C8.24236 23.7455 8.56938 23.5674 8.92075 23.5399C9.27212 23.5123 9.6192 23.6375 9.88602 23.888L13.6405 27.4423L18.658 28.8087C19.0006 28.902 19.2952 29.1397 19.4769 29.4695C19.6586 29.7993 19.7125 30.1942 19.6269 30.5674L19.6267 30.5676ZM41.7015 13.2982C41.5936 13.6652 41.4191 14.005 41.1885 14.2972C40.9578 14.5895 40.6757 14.8283 40.3587 14.9996L36.4852 17.109L33.9969 20.2795C33.9883 20.2904 33.9786 20.3007 33.9698 20.3114C33.9615 20.3212 33.9535 20.331 33.9451 20.3404C33.9386 20.3477 33.9328 20.3555 33.9263 20.3625L27.8006 27.0345C27.2984 27.5781 26.6191 27.8832 25.9111 27.883C25.6953 27.8831 25.4804 27.8543 25.271 27.7973L15.6227 25.1702C15.2606 25.0722 14.9215 24.8919 14.6279 24.6412L5.63361 16.981L1.63824 14.8053C1.3219 14.633 1.04023 14.3937 0.809673 14.1016C0.579118 13.8095 0.404292 13.4702 0.295398 13.1037C0.186503 12.7372 0.14572 12.3507 0.175428 11.9668C0.205137 11.583 0.304742 11.2094 0.468431 10.8679L4.56252 2.32856C4.88828 1.6571 5.44174 1.15058 6.10515 0.916762C6.76856 0.682945 7.48955 0.740289 8.11474 1.07659L11.8396 3.10494L19.9422 0.532288C20.5526 0.338717 21.2064 0.389067 21.7857 0.674257L27.2789 3.38127H30.0067L33.8822 1.27078C34.5074 0.934157 35.2285 0.876665 35.892 1.11055C36.5555 1.34443 37.1089 1.8512 37.4344 2.52293L41.5285 11.0621C41.6933 11.4032 41.7936 11.7769 41.8233 12.161C41.8531 12.5451 41.8117 12.9318 41.7016 13.2982H41.7015ZM30.9408 19.5116L25.6719 15.3382L24.3279 16.4356C23.1731 17.3715 21.772 17.8769 20.3326 17.8769C18.8931 17.8769 17.4921 17.3715 16.3372 16.4356L15.4349 15.6986C15.1296 15.4492 14.8771 15.1313 14.6944 14.7664C14.5118 14.4015 14.4032 13.9981 14.3761 13.5836C14.3491 13.169 14.4041 12.7529 14.5375 12.3635C14.6709 11.9741 14.8796 11.6205 15.1494 11.3266L21.6644 4.23108C21.7595 4.12893 21.8615 4.03463 21.9695 3.94896L20.6877 3.31726L12.5766 5.89282L8.04249 15.3499L16.2688 22.3559L25.9171 24.9831L30.9408 19.5116ZM34.051 15.7457L29.5139 6.2821H26.9952L26.9907 6.28246L26.9845 6.2821H23.5477L17.0331 13.3778L17.9354 14.115C18.6283 14.6765 19.4689 14.9797 20.3326 14.9797C21.1962 14.9797 22.0369 14.6765 22.7298 14.115L24.8607 12.3744C25.0885 12.1882 25.3651 12.0866 25.6499 12.0843C25.9347 12.082 26.2127 12.1792 26.443 12.3617L32.7723 17.375L34.051 15.7457Z" fill="#7A7A7A"/>
</svg>
