<svg width="18" height="20" viewBox="0 0 18 20" fill="none" xmlns="http://www.w3.org/2000/svg">
<path d="M15.7584 4.27729C15.6183 4.20752 15.4818 4.13104 15.3496 4.04813C14.9651 3.80333 14.6125 3.51489 14.2995 3.18901C13.5165 2.32613 13.224 1.45076 13.1163 0.837875H13.1206C13.0306 0.32915 13.0678 0 13.0734 0H9.50666V13.2818C9.50666 13.4602 9.50666 13.6364 9.49887 13.8106C9.49887 13.8322 9.49671 13.8522 9.49541 13.8756C9.49541 13.8851 9.49541 13.8951 9.49325 13.9051V13.9126C9.45565 14.3892 9.29702 14.8495 9.03131 15.2532C8.7656 15.6568 8.40096 15.9914 7.96945 16.2275C7.51973 16.4739 7.01109 16.6032 6.49369 16.6025C4.83188 16.6025 3.48504 15.2976 3.48504 13.686C3.48504 12.0744 4.83188 10.7695 6.49369 10.7695C6.80826 10.7692 7.12089 10.8169 7.41999 10.9107L7.42431 7.41338C6.51634 7.30043 5.59391 7.36992 4.71522 7.61747C3.83653 7.86502 3.02065 8.28524 2.31905 8.85164C1.70428 9.36603 1.18745 9.97979 0.791797 10.6653C0.641235 10.9153 0.0731662 11.9198 0.00437489 13.5502C-0.0388901 14.4755 0.249687 15.4342 0.38727 15.8305V15.8388C0.4738 16.0721 0.809103 16.8683 1.35554 17.5395C1.79617 18.078 2.31675 18.5509 2.90053 18.9432V18.9349L2.90918 18.9432C4.63589 20.0732 6.55036 19.999 6.55036 19.999C6.88177 19.9861 7.99195 19.999 9.25269 19.4236C10.651 18.7857 11.4471 17.8354 11.4471 17.8354C11.9557 17.2675 12.3601 16.6204 12.6429 15.9217C12.9657 15.1047 13.0734 14.1247 13.0734 13.7331V6.68675C13.1167 6.71175 13.693 7.07881 13.693 7.07881C13.693 7.07881 14.5232 7.59129 15.8186 7.92502C16.7479 8.16251 18 8.21251 18 8.21251V4.80268C17.5613 4.84851 16.6705 4.71518 15.7584 4.27729Z" fill="#BF9D60"/>
</svg>
