<svg width="50" height="50" viewBox="0 0 50 50" fill="none" xmlns="http://www.w3.org/2000/svg">
<path d="M26.0927 6.25C27.345 8.0571 28.4864 9.93875 29.5105 11.8845C29.6611 11.8632 29.8131 11.8524 29.9653 11.8522C30.5794 11.8524 31.1811 12.0256 31.7015 12.3521C32.2219 12.6786 32.6399 13.1452 32.9077 13.6984C34.3636 13.5681 35.8237 13.4909 37.2852 13.4671C38.1272 13.454 38.9727 13.4592 39.8221 13.4811C36.6036 9.32826 31.682 6.56992 26.0927 6.25ZM23.4424 6.28492C23.3783 6.29015 23.3138 6.29364 23.2497 6.29932C21.778 9.31342 20.6269 12.2917 19.8041 15.2312C20.1569 15.4498 20.465 15.7336 20.7119 16.0674C22.6955 15.4668 24.7083 14.9672 26.7424 14.5704C26.851 13.9394 27.1421 13.3541 27.5796 12.8871C26.4036 10.6551 25.0288 8.45362 23.4424 6.28492ZM20.6343 6.73097C16.088 7.81496 12.1108 10.561 9.48372 14.4299C11.4964 14.8919 13.489 15.4377 15.4562 16.0657C15.7213 15.7082 16.0564 15.4085 16.4411 15.185C16.8258 14.9615 17.252 14.8189 17.6936 14.766C18.424 12.1023 19.4042 9.42166 20.6343 6.73097ZM38.5658 15.6423C36.7423 15.6306 34.9379 15.7052 33.151 15.8606C32.9921 16.5507 32.6139 17.1706 32.0731 17.6273C32.6745 19.2458 33.1865 20.8962 33.6067 22.571C34.0339 22.6164 34.448 22.7456 34.8253 22.9512C35.2026 23.1569 35.5357 23.4349 35.8057 23.7694C38.3334 23.0115 40.9077 22.4188 43.5123 21.9953C43.1613 19.7903 42.4174 17.6665 41.316 15.7248C40.3946 15.6768 39.478 15.6485 38.5658 15.6423ZM8.31337 16.4114C7.36982 18.2503 6.73839 20.2335 6.44491 22.2798C9.18852 20.7034 11.9788 19.3277 14.817 18.1607C14.8167 18.1563 14.8164 18.1519 14.8161 18.1476C12.7092 17.4746 10.5385 16.9015 8.31337 16.4114ZM27.1044 16.7099C25.1641 17.0887 23.244 17.565 21.3516 18.1371C21.3502 18.1742 21.3482 18.2113 21.3455 18.2484C24.7252 19.6817 27.9716 21.4115 31.0466 23.4177C31.1895 23.2864 31.3437 23.1681 31.5076 23.0641C31.1086 21.4828 30.623 19.9247 30.0529 18.3968C30.0237 18.3977 29.9945 18.3983 29.9653 18.3985C29.3812 18.3983 28.8079 18.2415 28.3049 17.9445C27.8018 17.6474 27.387 17.2214 27.1044 16.7099ZM15.6276 20.1757C12.4484 21.4873 9.32413 23.0746 6.25174 24.9225C6.25174 24.943 6.25 24.9627 6.25 24.9832C6.25 29.9439 8.16555 34.4445 11.2933 37.796C13.0773 36.1989 14.9387 34.6906 16.8708 33.2766C16.051 29.218 15.932 25.0692 16.4692 20.8618C16.1525 20.6819 15.8681 20.4494 15.6276 20.1757ZM20.4769 20.2451C19.9745 20.7852 19.3046 21.1396 18.5757 21.2507C18.117 24.871 18.1824 28.4285 18.7972 31.9192C22.3545 29.5035 26.0844 27.4723 29.9914 25.8465C29.9914 25.8397 29.9914 25.8328 29.9914 25.826C29.9918 25.6667 30.0037 25.5077 30.0272 25.3502C27.0046 23.3628 23.8081 21.6541 20.4769 20.2451ZM43.7295 24.1705C41.2979 24.5729 38.8941 25.128 36.5321 25.8325C36.5312 26.3071 36.4272 26.7757 36.2273 27.206C38.3033 28.9039 40.2652 30.7369 42.1004 32.693C43.1904 30.2693 43.7527 27.6412 43.75 24.9832C43.75 24.7109 43.7413 24.4398 43.7295 24.1705ZM30.7275 27.893C26.7263 29.565 22.9174 31.6827 19.286 34.2241C20.0796 37.4267 21.3429 40.5714 23.0923 43.6544C23.7193 43.7177 24.356 43.75 25 43.75C27.543 43.75 29.9653 43.2437 32.1743 42.3298C32.9125 37.7846 33.0577 33.3516 32.5807 29.0269C31.8519 28.8713 31.1981 28.4712 30.7275 27.893ZM34.7308 28.7921C35.1799 32.8292 35.1123 36.9493 34.552 41.14C37.2011 39.5711 39.4244 37.3747 41.0264 34.7439C39.0757 32.6093 36.9716 30.6192 34.7308 28.7921ZM17.4154 35.581C15.8522 36.76 14.3379 38.0027 12.8766 39.3061C15.0444 41.1484 17.6039 42.4707 20.36 43.1721C19.0872 40.6861 18.1092 38.153 17.4154 35.581Z" fill="#7A7A7A"/>
</svg>
