<svg width="50" height="50" viewBox="0 0 50 50" fill="none" xmlns="http://www.w3.org/2000/svg">
<path d="M33.125 24.9634C31.6211 26.5991 30.4812 28.0823 29.7054 29.4128C28.9296 30.7434 28.5417 32.0068 28.5417 33.2031C28.5417 33.5205 28.4283 33.7952 28.2015 34.0271C27.9747 34.259 27.7062 34.375 27.3958 34.375H20.5208C20.2105 34.375 19.9419 34.259 19.7152 34.0271C19.4884 33.7952 19.375 33.5205 19.375 33.2031C19.375 32.0068 18.9871 30.7434 18.2113 29.4128C17.4354 28.0823 16.2956 26.5991 14.7917 24.9634C13.2639 22.8882 12.5 20.5566 12.5 17.9688C12.5 15.8447 13.0132 13.8855 14.0397 12.0911C15.0662 10.2966 16.4567 8.87451 18.2113 7.82471C19.9658 6.7749 21.8815 6.25 23.9583 6.25C26.0352 6.25 27.9508 6.7749 29.7054 7.82471C31.46 8.87451 32.8505 10.2966 33.877 12.0911C34.9034 13.8855 35.4167 15.8447 35.4167 17.9688C35.4167 20.5566 34.6528 22.8882 33.125 24.9634ZM20.5208 36.7188H27.3958C27.7062 36.7188 27.9747 36.8347 28.2015 37.0667C28.4283 37.2986 28.5417 37.5732 28.5417 37.8906C28.5417 38.208 28.4283 38.4827 28.2015 38.7146C27.9747 38.9465 27.7062 39.0625 27.3958 39.0625H20.5208C20.2105 39.0625 19.9419 38.9465 19.7152 38.7146C19.4884 38.4827 19.375 38.208 19.375 37.8906C19.375 37.5732 19.4884 37.2986 19.7152 37.0667C19.9419 36.8347 20.2105 36.7188 20.5208 36.7188ZM23.9583 43.75C22.6931 43.75 21.613 43.5181 20.7178 43.0542C19.8226 42.5903 19.375 42.041 19.375 41.4062H28.5417C28.5417 42.041 28.0941 42.5903 27.1989 43.0542C26.3037 43.5181 25.2235 43.75 23.9583 43.75Z" fill="#7A7A7A"/>
</svg>
