<svg width="50" height="50" viewBox="0 0 50 50" fill="none" xmlns="http://www.w3.org/2000/svg">
<path d="M23.6277 40.5678C23.5855 40.7527 23.5102 40.9267 23.4061 41.0799C23.3021 41.233 23.1713 41.3623 23.0213 41.4603C22.8713 41.5583 22.705 41.6232 22.532 41.6511C22.359 41.679 22.1826 41.6695 22.0129 41.6231L16.9954 40.257C16.5883 40.1455 16.211 39.9315 15.8938 39.6321L12.1397 36.0778C11.8747 35.8249 11.7126 35.468 11.6887 35.0852C11.6648 34.7024 11.7811 34.3249 12.0122 34.0353C12.2433 33.7457 12.5704 33.5677 12.9217 33.5401C13.2731 33.5125 13.6202 33.6377 13.887 33.8882L17.6415 37.4425L22.659 38.8089C23.0016 38.9022 23.2962 39.1399 23.4779 39.4697C23.6596 39.7996 23.7135 40.1945 23.6279 40.5676L23.6277 40.5678ZM45.7025 23.2984C45.5946 23.6655 45.4201 24.0052 45.1895 24.2975C44.9588 24.5897 44.6766 24.8286 44.3597 24.9999L40.4862 27.1093L37.9979 30.2797C37.9892 30.2906 37.9796 30.3009 37.9708 30.3116C37.9624 30.3214 37.9544 30.3312 37.9461 30.3407C37.9396 30.3479 37.9338 30.3557 37.9273 30.3628L31.8016 37.0347C31.2994 37.5783 30.6201 37.8834 29.9121 37.8833C29.6963 37.8833 29.4813 37.8545 29.272 37.7975L19.6237 35.1705C19.2615 35.0725 18.9225 34.8922 18.6288 34.6414L9.63459 26.9813L5.63922 24.8055C5.32287 24.6332 5.04121 24.394 4.81065 24.1018C4.58009 23.8097 4.40527 23.4705 4.29637 23.1039C4.18748 22.7374 4.1467 22.3509 4.1764 21.9671C4.20611 21.5832 4.30572 21.2096 4.46941 20.8681L8.5635 12.3288C8.88926 11.6573 9.44272 11.1508 10.1061 10.917C10.7695 10.6832 11.4905 10.7405 12.1157 11.0768L15.8406 13.1052L23.9432 10.5325C24.5536 10.339 25.2074 10.3893 25.7867 10.6745L31.2798 13.3815H34.0077L37.8832 11.271C38.5083 10.9344 39.2295 10.8769 39.893 11.1108C40.5564 11.3447 41.1099 11.8514 41.4354 12.5232L45.5295 21.0623C45.6943 21.4034 45.7946 21.7771 45.8243 22.1612C45.8541 22.5454 45.8127 22.9321 45.7026 23.2984H45.7025ZM34.9418 29.5119L29.6729 25.3384L28.3289 26.4359C27.1741 27.3717 25.773 27.8771 24.3336 27.8771C22.8941 27.8771 21.493 27.3717 20.3382 26.4359L19.4359 25.6989C19.1306 25.4495 18.8781 25.1316 18.6954 24.7667C18.5127 24.4018 18.4042 23.9984 18.3771 23.5838C18.35 23.1692 18.4051 22.7532 18.5385 22.3638C18.6719 21.9744 18.8806 21.6208 19.1504 21.3268L25.6653 14.2313C25.7605 14.1292 25.8625 14.0349 25.9705 13.9492L24.6886 13.3175L16.5775 15.8931L12.0435 25.3502L20.2698 32.3561L29.9181 34.9834L34.9418 29.5119ZM38.052 25.746L33.5149 16.2823H30.9962L30.9917 16.2827L30.9855 16.2823H27.5487L21.034 23.378L21.9363 24.1153C22.6293 24.6767 23.4699 24.9799 24.3336 24.9799C25.1972 24.9799 26.0379 24.6767 26.7308 24.1153L28.8616 22.3747C29.0895 22.1885 29.3661 22.0868 29.6509 22.0845C29.9357 22.0822 30.2137 22.1795 30.444 22.362L36.7733 27.3753L38.052 25.746Z" fill="#7A7A7A"/>
</svg>
