<svg width="50" height="50" viewBox="0 0 50 50" fill="none" xmlns="http://www.w3.org/2000/svg">
<path d="M24.9998 8.33081C24.2706 8.33081 23.5486 8.47443 22.8749 8.75347C22.2013 9.03251 21.5892 9.44151 21.0736 9.95711C20.558 10.4727 20.149 11.0848 19.8699 11.7585C19.5909 12.4322 19.4473 13.1542 19.4473 13.8834C19.4473 14.6125 19.5909 15.3346 19.8699 16.0082C20.149 16.6819 20.558 17.294 21.0736 17.8096C21.5892 18.3252 22.2013 18.7342 22.8749 19.0132C23.5486 19.2923 24.2706 19.4359 24.9998 19.4359C26.4724 19.4359 27.8847 18.8509 28.926 17.8096C29.9673 16.7683 30.5523 15.356 30.5523 13.8834C30.5523 12.4107 29.9673 10.9984 28.926 9.95711C27.8847 8.91581 26.4724 8.33081 24.9998 8.33081V8.33081Z" fill="#7A7A7A"/>
<path d="M37.5055 11.1045C36.3999 11.1045 35.3396 11.5437 34.5579 12.3254C33.7761 13.1072 33.3369 14.1675 33.3369 15.2731C33.3369 16.3786 33.7761 17.4389 34.5579 18.2207C35.3396 19.0024 36.3999 19.4416 37.5055 19.4416C38.6111 19.4416 39.6714 19.0024 40.4531 18.2207C41.2349 17.4389 41.6741 16.3786 41.6741 15.2731C41.6741 14.1675 41.2349 13.1072 40.4531 12.3254C39.6714 11.5437 38.6111 11.1045 37.5055 11.1045V11.1045Z" fill="#7A7A7A"/>
<path d="M12.4947 11.1045C11.3892 11.1045 10.3289 11.5437 9.54712 12.3254C8.76536 13.1072 8.32617 14.1675 8.32617 15.2731C8.32617 16.3786 8.76536 17.4389 9.54712 18.2207C10.3289 19.0024 11.3892 19.4416 12.4947 19.4416C13.6003 19.4416 14.6606 19.0024 15.4424 18.2207C16.2241 17.4389 16.6633 16.3786 16.6633 15.2731C16.6633 14.1675 16.2241 13.1072 15.4424 12.3254C14.6606 11.5437 13.6003 11.1045 12.4947 11.1045Z" fill="#7A7A7A"/>
<path d="M16.6631 24.9801C16.6682 24.2464 16.9633 23.5445 17.4839 23.0275C18.0045 22.5106 18.7084 22.2204 19.4421 22.2205H30.5583C31.2954 22.2205 32.0022 22.5133 32.5234 23.0344C33.0446 23.5556 33.3374 24.2625 33.3374 24.9995V33.3367C33.3372 34.2113 33.2003 35.0805 32.9316 35.9128C32.3163 37.799 31.0487 39.404 29.3564 40.4396C27.6642 41.4753 25.6582 41.8737 23.6986 41.5634C21.739 41.2531 19.9543 40.2544 18.6648 38.7466C17.3753 37.2388 16.6656 35.3206 16.6631 33.3367V24.9995V24.9801Z" fill="#7A7A7A"/>
<path d="M13.884 24.9995C13.884 23.9852 14.1536 23.0375 14.6288 22.2205H8.32592C7.58887 22.2205 6.88201 22.5133 6.36084 23.0344C5.83967 23.5556 5.54688 24.2625 5.54688 24.9995V31.9471C5.5465 33.0846 5.82541 34.2048 6.35912 35.2093C6.89282 36.2138 7.665 37.0719 8.60784 37.7082C9.55067 38.3445 10.6353 38.7396 11.7665 38.8588C12.8978 38.978 14.0409 38.8176 15.0957 38.3917C14.2958 36.826 13.8805 35.0921 13.884 33.3339V24.9995Z" fill="#7A7A7A"/>
<path d="M36.116 24.9995V33.3367C36.116 35.1569 35.6797 36.8744 34.9043 38.3917C35.959 38.8176 37.1022 38.978 38.2334 38.8588C39.3647 38.7396 40.4493 38.3445 41.3921 37.7082C42.335 37.0719 43.1072 36.2138 43.6409 35.2093C44.1746 34.2048 44.4535 33.0846 44.4531 31.9471V24.9995C44.4531 24.2625 44.1603 23.5556 43.6391 23.0344C43.118 22.5133 42.4111 22.2205 41.6741 22.2205H35.3712C35.8436 23.0375 36.116 23.9852 36.116 24.9995Z" fill="#7A7A7A"/>
</svg>
